<?xml version="1.0" standalone="no"?>
<!DOCTYPE svg PUBLIC "-//W3C//DTD SVG 20010904//EN"
 "http://www.w3.org/TR/2001/REC-SVG-20010904/DTD/svg10.dtd">
<svg version="1.0" xmlns="http://www.w3.org/2000/svg"
 width="260.000000pt" height="260.000000pt" viewBox="0 0 260.000000 260.000000"
 preserveAspectRatio="xMidYMid meet">
<metadata>
Created by potrace 1.11, written by Peter Selinger 2001-2013
</metadata>
<g transform="translate(0.000000,260.000000) scale(0.100000,-0.100000)"
fill="#000000" stroke="none">
<path d="M1595 2143 c4 -21 9 -92 11 -158 3 -140 -11 -196 -62 -251 -32 -33
-62 -38 -50 -8 6 16 -21 47 -35 39 -15 -10 -69 -93 -69 -108 0 -7 -20 -54 -44
-103 -38 -79 -59 -136 -61 -169 -2 -20 -25 -53 -42 -59 -14 -6 -14 -3 4 16 19
21 21 33 18 118 -2 52 -3 103 -4 113 -1 11 -9 17 -26 17 -21 0 -24 3 -16 18 6
12 4 28 -9 54 -17 35 -29 73 -37 112 -5 29 -5 29 -86 35 -4 1 -3 10 4 22 16
31 19 92 4 113 -12 16 -14 15 -31 -13 -32 -55 -42 -42 -47 66 -2 40 -10 80
-18 90 -7 10 -15 20 -16 22 -7 11 -33 -24 -33 -45 0 -44 -19 -34 -34 20 -26
88 -69 115 -71 43 -1 -50 -9 -54 -35 -13 -20 33 -63 57 -77 42 -3 -3 2 -24 12
-46 10 -22 15 -43 12 -46 -3 -4 -25 12 -49 34 -40 39 -83 60 -96 47 -3 -3 12
-30 33 -60 21 -31 35 -58 31 -62 -5 -5 -65 44 -96 78 -9 10 -68 28 -74 22 -11
-12 -6 -20 60 -89 36 -37 75 -82 87 -99 12 -16 24 -32 27 -35 22 -19 100 -171
100 -197 0 -15 -1 -15 -18 0 -22 20 -32 13 -32 -19 0 -16 33 -57 106 -131 114
-116 123 -130 138 -223 5 -33 20 -66 35 -78 9 -8 10 -10 2 -6 -13 6 -86 -13
-106 -28 -5 -5 -35 -25 -65 -45 -83 -55 -85 -59 -86 -132 -1 -36 1 -72 3 -78
8 -19 21 -15 28 8 4 12 12 18 21 15 7 -3 20 4 28 15 18 26 81 35 130 19 43
-14 113 -90 94 -102 -7 -4 -9 -8 -4 -8 5 0 4 -6 -2 -12 -6 -7 -11 -16 -11 -20
-7 -48 -18 -72 -39 -88 -27 -22 -57 -26 -67 -10 -3 6 -16 10 -28 10 -13 0 -30
9 -40 20 -9 11 -21 20 -26 20 -15 0 -25 -21 -13 -29 5 -3 11 -15 13 -26 3 -14
13 -21 37 -23 26 -3 35 -10 47 -38 9 -23 21 -34 35 -34 12 0 24 -9 29 -22 l8
-23 7 23 c5 16 2 29 -9 42 -16 17 -15 19 7 34 13 8 41 18 63 22 22 3 48 10 57
15 27 15 36 11 31 -15 -3 -13 3 -35 12 -49 29 -45 3 -137 -39 -137 -13 0 -33
-9 -46 -20 -18 -16 -31 -19 -58 -14 -24 5 -37 2 -43 -7 -14 -23 -10 -31 11
-24 14 5 26 0 38 -15 l17 -21 27 20 c26 21 26 21 31 1 5 -18 29 -30 26 -13 -5
29 2 34 23 19 27 -19 59 -21 76 -4 10 10 17 10 31 1 10 -7 21 -9 25 -6 10 10
-14 43 -32 43 -40 1 -47 16 -28 59 10 22 31 51 47 65 16 14 31 37 35 51 10 39
32 30 44 -17 6 -24 22 -65 35 -93 14 -27 25 -57 25 -65 0 -30 30 -60 60 -60
24 0 31 5 37 27 4 16 6 35 5 43 -2 8 11 -8 28 -37 31 -54 49 -69 92 -77 40 -7
48 4 33 47 -15 45 -9 46 33 7 18 -17 41 -30 51 -30 9 0 22 -5 28 -11 15 -15
72 17 92 52 16 28 8 79 -12 79 -24 1 -124 55 -120 66 4 11 -60 74 -76 74 -5 0
-30 20 -55 45 -54 52 -114 170 -99 193 5 8 38 30 73 48 72 36 100 59 100 84 0
9 9 16 21 17 45 4 88 68 69 103 -8 15 -6 17 9 13 21 -5 61 13 61 28 0 5 19 29
43 52 23 23 43 47 44 52 14 89 14 92 -12 109 -14 9 -25 21 -25 25 0 9 46 28
90 36 28 5 58 31 75 66 15 28 6 52 -16 45 -75 -24 -93 -9 -30 24 45 23 51 29
61 76 8 33 3 40 -25 34 -39 -8 -49 -9 -57 -4 -5 3 5 20 21 36 34 35 53 83 48
118 -5 33 -21 36 -48 9 -22 -22 -23 -22 -29 -3 -4 10 -3 34 1 52 4 19 5 40 2
48 -8 21 -41 27 -59 10 -21 -22 -34 -11 -34 28 0 36 -32 78 -53 70 -9 -3 -13
-19 -12 -45 1 -22 -1 -42 -5 -44 -3 -2 -19 23 -34 56 -19 41 -32 59 -46 59
-17 0 -18 -6 -13 -77 7 -91 -4 -91 -37 -1 -25 71 -54 108 -83 108 -17 0 -19
-4 -12 -37z"/>
</g>
</svg>
